# xmcd
#
# Track frame offsets: 
#        150
#        27805
#        46713
#        66324
#        90686
#        113192
#        132777
#        151436
#        179602
#        211048
#        240483
#        264236
#        290194
#
# Disc length: 4245 seconds
#
# Revision: 0
# Processed by: cddbd v1.5.2PL0 Copyright (c) Steve Scherf et al.
# Submitted via: ExactAudioCopyFreeDBPlugin 1.0
#
DISCID=b210930d
DTITLE=Sannan - Chillage
DYEAR=2011
DGENRE=Electronic
TTITLE0=Hypnotized
TTITLE1=When You Walked In (feat. Bryant Goodman)
TTITLE2=Bagombo
TTITLE3=Moroccan Fantasy
TTITLE4=Bluetone
TTITLE5=Erua (The Heaven)
TTITLE6=Explanatory Gap
TTITLE7=Moroccan Fantasy (The Lushlife Project and Zoohacker Remix)
TTITLE8=Egyszervolt
TTITLE9=Infinite Men
TTITLE10=Cool Dawn
TTITLE11=Origins
TTITLE12=Moroccan Fantasy (Hadron Orchestra Remix)
EXTD=
EXTT0=
EXTT1=
EXTT2=
EXTT3=
EXTT4=
EXTT5=
EXTT6=
EXTT7=
EXTT8=
EXTT9=
EXTT10=
EXTT11=
EXTT12=
PLAYORDER=
